<svg width="18" height="20" viewBox="0 0 18 20" fill="none" xmlns="http://www.w3.org/2000/svg">
<path d="M11 18C10.6442 18.4723 10.1348 18.8036 9.56075 18.9361C8.98673 19.0686 8.3847 18.9937 7.86 18.7246C7.51363 18.5655 7.21646 18.3152 7 18" stroke="#303037" stroke-width="2" stroke-linecap="round" stroke-linejoin="round"/>
<path d="M15 7V8C15.0017 8.68013 15.2344 9.3395 15.66 9.87L16.43 10.87C16.7827 11.3076 16.9828 11.8483 17 12.41C17 13.0969 16.7271 13.7557 16.2414 14.2414C15.7557 14.7271 15.0969 15 14.41 15H3.59C2.90309 15 2.24431 14.7271 1.75859 14.2414C1.27287 13.7557 1 13.0969 1 12.41V12.07C1.00075 11.3834 1.27411 10.7251 1.76 10.24L2.12 9.88C2.68277 9.31793 2.9993 8.55538 3 7.76V7C3 5.4087 3.63214 3.88258 4.75736 2.75736C5.88258 1.63214 7.4087 1 9 1C10.5913 1 12.1174 1.63214 13.2426 2.75736C14.3679 3.88258 15 5.4087 15 7Z" stroke="#303037" stroke-width="2" stroke-linecap="round" stroke-linejoin="round"/>
</svg>
