<svg width="18" height="20" viewBox="0 0 18 20" fill="none" xmlns="http://www.w3.org/2000/svg">
<path d="M9.00036 20C8.4445 20.0015 7.89621 19.8712 7.40036 19.62C6.91019 19.3762 6.4903 19.0113 6.18036 18.56C6.10713 18.4505 6.05628 18.3275 6.03072 18.1983C6.00515 18.069 6.00539 17.936 6.03141 17.8068C6.05743 17.6776 6.10872 17.5549 6.18234 17.4456C6.25595 17.3363 6.35043 17.2427 6.46036 17.17C6.68082 17.0253 6.94953 16.9735 7.20799 17.026C7.46645 17.0784 7.69373 17.2308 7.84036 17.45C7.96047 17.6122 8.11839 17.7427 8.30036 17.83C8.60666 17.9909 8.95914 18.041 9.29812 17.9717C9.63709 17.9025 9.94171 17.7181 10.1604 17.45C10.307 17.2308 10.5343 17.0784 10.7927 17.026C11.0512 16.9735 11.3199 17.0253 11.5404 17.17C11.6503 17.2427 11.7448 17.3363 11.8184 17.4456C11.892 17.5549 11.9433 17.6776 11.9693 17.8068C11.9953 17.936 11.9956 18.069 11.97 18.1983C11.9444 18.3275 11.8936 18.4505 11.8204 18.56C11.5049 19.0133 11.0825 19.3819 10.5906 19.633C10.0988 19.8842 9.55255 20.0102 9.00036 20Z" fill="#303037"/>
<path d="M18.0003 12.42C17.9977 13.3704 17.6183 14.281 16.9453 14.952C16.2724 15.6231 15.3607 16 14.4103 16H3.59034C2.63994 16 1.72833 15.6231 1.05536 14.952C0.38239 14.281 0.00299034 13.3704 0.000342996 12.42V12.08C-0.0126962 11.1349 0.346488 10.2226 1.00034 9.54L1.37035 9.18C1.56357 8.99846 1.71877 8.78032 1.82693 8.53826C1.93508 8.2962 1.99403 8.03505 2.00034 7.77V7C2.00034 5.14348 2.73784 3.36301 4.0506 2.05025C5.36335 0.7375 7.14383 0 9.00034 0C10.8569 0 12.6373 0.7375 13.9501 2.05025C15.2628 3.36301 16.0003 5.14348 16.0003 7V8C16.0007 8.45456 16.1559 8.89544 16.4403 9.25L17.2103 10.25C17.7042 10.8673 17.9817 11.6297 18.0003 12.42Z" fill="#303037"/>
</svg>
