<svg width="21" height="22" viewBox="0 0 21 22" fill="none" xmlns="http://www.w3.org/2000/svg">
<path d="M1.01001 18V5C1.01001 3.93913 1.43144 2.92172 2.18158 2.17157C2.93173 1.42143 3.94914 1 5.01001 1H15.01C16.0709 1 17.0883 1.42143 17.8384 2.17157C18.5886 2.92172 19.01 3.93913 19.01 5V15" stroke="white" stroke-width="2" stroke-linecap="round" stroke-linejoin="round"/>
<path d="M19.01 21H4.01001C3.21436 21 2.4513 20.6839 1.88869 20.1213C1.32608 19.5587 1.01001 18.7956 1.01001 18C1.01001 17.2044 1.32608 16.4413 1.88869 15.8787C2.4513 15.3161 3.21436 15 4.01001 15H19.01" stroke="white" stroke-width="2" stroke-linecap="round" stroke-linejoin="round"/>
<path d="M19.01 21L18.84 20.75C18.3003 19.9342 18.0117 18.9781 18.01 18C18.0117 17.0219 18.3003 16.0658 18.84 15.25L19.01 15" stroke="white" stroke-width="2" stroke-linecap="round" stroke-linejoin="round"/>
<path d="M7.01001 6H13.01" stroke="white" stroke-width="2" stroke-linecap="round" stroke-linejoin="round"/>
<path d="M7.01001 10H11.01" stroke="white" stroke-width="2" stroke-linecap="round" stroke-linejoin="round"/>
</svg>
