<svg width="20" height="22" viewBox="0 0 20 22" fill="none" xmlns="http://www.w3.org/2000/svg">
<path d="M19.8337 15.56C19.8769 15.4987 19.9106 15.4313 19.9337 15.36C19.9549 15.3116 19.9716 15.2614 19.9837 15.21C19.9954 15.1406 20.002 15.0704 20.0037 15V5C20.0037 4.34339 19.8744 3.69321 19.6231 3.08658C19.3719 2.47995 19.0036 1.92876 18.5393 1.46447C18.075 1.00017 17.5238 0.631876 16.9172 0.380602C16.3105 0.129329 15.6603 0 15.0037 0H5.00374C3.67765 0 2.40588 0.526784 1.4682 1.46447C0.530521 2.40215 0.00373655 3.67392 0.00373655 5V17.8C-0.00124552 17.8666 -0.00124552 17.9334 0.00373655 18C0.00373655 19.0609 0.425164 20.0783 1.17531 20.8284C1.92545 21.5786 2.94287 22 4.00374 22H19.0037C19.2003 22.0022 19.3927 21.9428 19.5537 21.83C19.7729 21.6834 19.9254 21.4561 19.9778 21.1976C20.0302 20.9392 19.9785 20.6705 19.8337 20.45L19.6637 20.19C19.2378 19.539 19.011 18.7779 19.011 18C19.011 17.2221 19.2378 16.461 19.6637 15.81L19.8337 15.56ZM7.00374 5H13.0037C13.269 5 13.5233 5.10536 13.7108 5.29289C13.8984 5.48043 14.0037 5.73478 14.0037 6C14.0037 6.26522 13.8984 6.51957 13.7108 6.70711C13.5233 6.89464 13.269 7 13.0037 7H7.00374C6.73852 7 6.48417 6.89464 6.29663 6.70711C6.10909 6.51957 6.00374 6.26522 6.00374 6C6.00374 5.73478 6.10909 5.48043 6.29663 5.29289C6.48417 5.10536 6.73852 5 7.00374 5ZM7.00374 9H11.0037C11.269 9 11.5233 9.10536 11.7108 9.29289C11.8984 9.48043 12.0037 9.73478 12.0037 10C12.0037 10.2652 11.8984 10.5196 11.7108 10.7071C11.5233 10.8946 11.269 11 11.0037 11H7.00374C6.73852 11 6.48417 10.8946 6.29663 10.7071C6.10909 10.5196 6.00374 10.2652 6.00374 10C6.00374 9.73478 6.10909 9.48043 6.29663 9.29289C6.48417 9.10536 6.73852 9 7.00374 9ZM17.3437 20H4.00374C3.48521 20.0003 2.98683 19.7992 2.61371 19.4392C2.24058 19.0791 2.02188 18.5882 2.00374 18.07V18C1.99848 17.9334 1.99848 17.8666 2.00374 17.8C2.05348 17.305 2.28597 16.8462 2.65578 16.5134C3.0256 16.1805 3.5062 15.9975 4.00374 16H17.3437C16.8902 17.2948 16.8902 18.7052 17.3437 20Z" fill="#303037"/>
</svg>
