<svg width="16" height="18" viewBox="0 0 16 18" fill="none" xmlns="http://www.w3.org/2000/svg">
<path d="M5 1H11C12.0609 1 13.0783 1.42159 13.8284 2.17203C14.5786 2.92248 15 3.94029 15 5.00158V15.2056C14.9989 15.5068 14.9224 15.803 14.7773 16.067C14.6322 16.3309 14.4232 16.5543 14.1695 16.7165C13.9157 16.8788 13.6254 16.9747 13.325 16.9957C13.0246 17.0166 12.7237 16.9618 12.45 16.8362L8.83 15.1856C8.56944 15.0667 8.28639 15.0052 8 15.0052C7.71361 15.0052 7.43056 15.0667 7.17 15.1856L3.55 16.8362C3.27626 16.9618 2.97541 17.0166 2.67501 16.9957C2.37461 16.9747 2.08426 16.8788 1.83054 16.7165C1.57682 16.5543 1.36784 16.3309 1.22274 16.067C1.07764 15.803 1.00105 15.5068 1 15.2056V5.00158C1 3.94029 1.42143 2.92248 2.17157 2.17203C2.92172 1.42159 3.93913 1 5 1Z" stroke="#303037" stroke-width="2" stroke-linecap="round" stroke-linejoin="round"/>
</svg>
