<svg width="16" height="18" viewBox="0 0 16 18" fill="none" xmlns="http://www.w3.org/2000/svg">
<path d="M16 4.99717V15.1914C16.0017 15.6644 15.8832 16.13 15.6556 16.5449C15.4281 16.9598 15.0988 17.3104 14.6985 17.564C14.2983 17.8175 13.8402 17.9657 13.3669 17.9947C12.8937 18.0238 12.4208 17.9327 11.9925 17.73L8.36567 16.0809C8.23515 16.0215 8.09336 15.9908 7.9499 15.9908C7.80643 15.9908 7.66464 16.0215 7.53412 16.0809L3.97745 17.73C3.61128 17.9034 3.21061 17.9922 2.80526 17.9898C2.06288 17.9846 1.35239 17.6881 0.827438 17.1644C0.302484 16.6407 0.00524669 15.932 0 15.1914V4.99717C0 3.67184 0.527773 2.40079 1.46722 1.46364C2.40666 0.526486 3.68081 0 5.00939 0H11.0207C12.344 0.00792092 13.6105 0.537904 14.5434 1.4742C15.4764 2.41049 16 3.67702 16 4.99717Z" fill="#303037"/>
</svg>
