<svg width="20" height="20" viewBox="0 0 20 20" fill="none" xmlns="http://www.w3.org/2000/svg">
<path fill-rule="evenodd" clip-rule="evenodd" d="M15 2.02979V3.02979C15 3.295 14.8946 3.54936 14.7071 3.73689C14.5196 3.92443 14.2652 4.02979 14 4.02979C13.7348 4.02979 13.4804 3.92443 13.2929 3.73689C13.1054 3.54936 13 3.295 13 3.02979V2.02979H7V3.02979C7 3.295 6.89464 3.54936 6.70711 3.73689C6.51957 3.92443 6.26522 4.02979 6 4.02979C5.73478 4.02979 5.48043 3.92443 5.29289 3.73689C5.10536 3.54936 5 3.295 5 3.02979V2.02979C3.63393 2.1522 2.36316 2.78151 1.4378 3.79385C0.512441 4.8062 -0.000477015 6.12824 3.32883e-07 7.49979V14.4998C3.32883e-07 15.2221 0.142262 15.9373 0.418663 16.6045C0.695064 17.2718 1.10019 17.8781 1.61091 18.3889C2.64236 19.4203 4.04131 19.9998 5.5 19.9998H14.5C15.2223 19.9998 15.9375 19.8575 16.6048 19.5811C17.272 19.3047 17.8784 18.8996 18.3891 18.3889C18.8998 17.8781 19.3049 17.2718 19.5813 16.6045C19.8577 15.9373 20 15.2221 20 14.4998V7.49979C20.0005 6.12824 19.4876 4.8062 18.5622 3.79385C17.6368 2.78151 16.3661 2.1522 15 2.02979ZM6 14.4998C5.80222 14.4998 5.60888 14.4411 5.44443 14.3313C5.27998 14.2214 5.15181 14.0652 5.07612 13.8825C5.00043 13.6997 4.98063 13.4987 5.01922 13.3047C5.0578 13.1107 5.15304 12.9325 5.29289 12.7927C5.43275 12.6528 5.61093 12.5576 5.80491 12.519C5.99889 12.4804 6.19996 12.5002 6.38268 12.5759C6.56541 12.6516 6.72159 12.7798 6.83147 12.9442C6.94135 13.1087 7 13.302 7 13.4998C7 13.765 6.89464 14.0194 6.70711 14.2069C6.51957 14.3944 6.26522 14.4998 6 14.4998ZM6 10.4998C5.80222 10.4998 5.60888 10.4411 5.44443 10.3313C5.27998 10.2214 5.15181 10.0652 5.07612 9.88247C5.00043 9.69974 4.98063 9.49868 5.01922 9.3047C5.0578 9.11071 5.15304 8.93253 5.29289 8.79268C5.43275 8.65283 5.61093 8.55759 5.80491 8.519C5.99889 8.48041 6.19996 8.50022 6.38268 8.57591C6.56541 8.65159 6.72159 8.77977 6.83147 8.94421C6.94135 9.10866 7 9.302 7 9.49979C7 9.765 6.89464 10.0194 6.70711 10.2069C6.51957 10.3944 6.26522 10.4998 6 10.4998ZM10 14.4998C9.80222 14.4998 9.60888 14.4411 9.44443 14.3313C9.27998 14.2214 9.15181 14.0652 9.07612 13.8825C9.00043 13.6997 8.98063 13.4987 9.01922 13.3047C9.0578 13.1107 9.15304 12.9325 9.29289 12.7927C9.43275 12.6528 9.61093 12.5576 9.80491 12.519C9.99889 12.4804 10.2 12.5002 10.3827 12.5759C10.5654 12.6516 10.7216 12.7798 10.8315 12.9442C10.9414 13.1087 11 13.302 11 13.4998C11 13.765 10.8946 14.0194 10.7071 14.2069C10.5196 14.3944 10.2652 14.4998 10 14.4998ZM10 10.4998C9.80222 10.4998 9.60888 10.4411 9.44443 10.3313C9.27998 10.2214 9.15181 10.0652 9.07612 9.88247C9.00043 9.69974 8.98063 9.49868 9.01922 9.3047C9.0578 9.11071 9.15304 8.93253 9.29289 8.79268C9.43275 8.65283 9.61093 8.55759 9.80491 8.519C9.99889 8.48041 10.2 8.50022 10.3827 8.57591C10.5654 8.65159 10.7216 8.77977 10.8315 8.94421C10.9414 9.10866 11 9.302 11 9.49979C11 9.765 10.8946 10.0194 10.7071 10.2069C10.5196 10.3944 10.2652 10.4998 10 10.4998ZM14 14.4998C13.8022 14.4998 13.6089 14.4411 13.4444 14.3313C13.28 14.2214 13.1518 14.0652 13.0761 13.8825C13.0004 13.6997 12.9806 13.4987 13.0192 13.3047C13.0578 13.1107 13.153 12.9325 13.2929 12.7927C13.4327 12.6528 13.6109 12.5576 13.8049 12.519C13.9989 12.4804 14.2 12.5002 14.3827 12.5759C14.5654 12.6516 14.7216 12.7798 14.8315 12.9442C14.9414 13.1087 15 13.302 15 13.4998C15 13.765 14.8946 14.0194 14.7071 14.2069C14.5196 14.3944 14.2652 14.4998 14 14.4998ZM14 10.4998C13.8022 10.4998 13.6089 10.4411 13.4444 10.3313C13.28 10.2214 13.1518 10.0652 13.0761 9.88247C13.0004 9.69974 12.9806 9.49868 13.0192 9.3047C13.0578 9.11071 13.153 8.93253 13.2929 8.79268C13.4327 8.65283 13.6109 8.55759 13.8049 8.519C13.9989 8.48041 14.2 8.50022 14.3827 8.57591C14.5654 8.65159 14.7216 8.77977 14.8315 8.94421C14.9414 9.10866 15 9.302 15 9.49979C15 9.765 14.8946 10.0194 14.7071 10.2069C14.5196 10.3944 14.2652 10.4998 14 10.4998Z" fill="#303037"/>
<path d="M7 1V2H5.5C5.33349 1.98975 5.16651 1.98975 5 2V1C5 0.734784 5.10536 0.48043 5.29289 0.292893C5.48043 0.105357 5.73478 0 6 0C6.26522 0 6.51957 0.105357 6.70711 0.292893C6.89464 0.48043 7 0.734784 7 1Z" fill="#303037"/>
<path d="M15 1V2C14.8335 1.98975 14.6665 1.98975 14.5 2H13V1C13 0.734784 13.1054 0.48043 13.2929 0.292893C13.4804 0.105357 13.7348 0 14 0C14.2652 0 14.5196 0.105357 14.7071 0.292893C14.8946 0.48043 15 0.734784 15 1Z" fill="#303037"/>
</svg>
