<svg width="20" height="20" viewBox="0 0 20 20" fill="none" xmlns="http://www.w3.org/2000/svg">
<path d="M20.0001 13.4202V17.0102C20.0001 17.8058 19.684 18.5689 19.1214 19.1315C18.5588 19.6941 17.7957 20.0102 17.0001 20.0102H13.4201C12.9438 20.0105 12.478 19.8697 12.0817 19.6056C11.6853 19.3414 11.3762 18.9657 11.1932 18.5259C11.0102 18.0862 10.9617 17.6021 11.0537 17.1347C11.1457 16.6674 11.3741 16.2378 11.7101 15.9002L15.8801 11.7202C16.219 11.3856 16.6491 11.1585 17.1165 11.0673C17.584 10.976 18.0679 11.0248 18.5078 11.2073C18.9476 11.3899 19.3239 11.6982 19.5893 12.0936C19.8548 12.489 19.9976 12.9539 20.0001 13.4302V13.4202Z" fill="white"/>
<path d="M4.5 9C6.98528 9 9 6.98528 9 4.5C9 2.01472 6.98528 0 4.5 0C2.01472 0 0 2.01472 0 4.5C0 6.98528 2.01472 9 4.5 9Z" fill="white"/>
<path d="M20 3V6C20 6.79565 19.6839 7.55871 19.1213 8.12132C18.5587 8.68393 17.7956 9 17 9H14C13.2043 9 12.4413 8.68393 11.8787 8.12132C11.3161 7.55871 11 6.79565 11 6V3C11 2.20435 11.3161 1.44129 11.8787 0.87868C12.4413 0.316071 13.2043 0 14 0H17C17.7956 0 18.5587 0.316071 19.1213 0.87868C19.6839 1.44129 20 2.20435 20 3Z" fill="white"/>
<path d="M9 14V17C9 17.7956 8.68393 18.5587 8.12132 19.1213C7.55871 19.6839 6.79565 20 6 20H3C2.20435 20 1.44129 19.6839 0.87868 19.1213C0.316071 18.5587 0 17.7956 0 17V14C0 13.2043 0.316071 12.4413 0.87868 11.8787C1.44129 11.3161 2.20435 11 3 11H6C6.79565 11 7.55871 11.3161 8.12132 11.8787C8.68393 12.4413 9 13.2043 9 14Z" fill="white"/>
</svg>
