<svg width="20" height="20" viewBox="0 0 20 20" fill="none" xmlns="http://www.w3.org/2000/svg">
<path d="M14 0H6C4.4087 0 2.88258 0.63214 1.75736 1.75736C0.632141 2.88258 0 4.4087 0 6V14C0 15.5913 0.632141 17.1174 1.75736 18.2426C2.88258 19.3679 4.4087 20 6 20H14C15.5913 20 17.1174 19.3679 18.2426 18.2426C19.3679 17.1174 20 15.5913 20 14V6C20 4.4087 19.3679 2.88258 18.2426 1.75736C17.1174 0.63214 15.5913 0 14 0ZM14.21 8.38L9.5 13.06C9.31264 13.2463 9.05919 13.3508 8.795 13.3508C8.53081 13.3508 8.27736 13.2463 8.09 13.06L5.8 10.71C5.61375 10.5226 5.50921 10.2692 5.50921 10.005C5.50921 9.74081 5.61375 9.48736 5.8 9.3C5.98736 9.11375 6.24081 9.00921 6.505 9.00921C6.76919 9.00921 7.02264 9.11375 7.21 9.3L8.84 10.92L12.84 6.92C13.0274 6.73375 13.2808 6.62921 13.545 6.62921C13.8092 6.62921 14.0626 6.73375 14.25 6.92C14.3474 7.01625 14.424 7.13148 14.475 7.25854C14.5261 7.3856 14.5505 7.5218 14.5467 7.65868C14.543 7.79556 14.5112 7.93021 14.4532 8.05429C14.3953 8.17837 14.3125 8.28923 14.21 8.38Z" fill="#303037"/>
</svg>
