<svg width="20" height="18" viewBox="0 0 20 18" fill="none" xmlns="http://www.w3.org/2000/svg">
<path d="M14 0H6C4.4087 0 2.88258 0.632141 1.75736 1.75736C0.632144 2.88258 0 4.4087 0 6V12C0 13.5913 0.632144 15.1174 1.75736 16.2426C2.88258 17.3679 4.4087 18 6 18H14C15.5913 18 17.1174 17.3679 18.2426 16.2426C19.3679 15.1174 20 13.5913 20 12V6C20 4.4087 19.3679 2.88258 18.2426 1.75736C17.1174 0.632141 15.5913 0 14 0ZM14.78 6.63L13.38 8.38C12.9744 8.88654 12.46 9.29521 11.8748 9.57566C11.2897 9.85612 10.6489 10.0012 10 10C9.35075 10.0033 8.7092 9.85928 8.12372 9.57866C7.53823 9.29804 7.02408 8.88819 6.62 8.38L5.21 6.63C5.12749 6.52709 5.06616 6.40888 5.02953 6.28217C4.99289 6.15546 4.9817 6.02276 4.99657 5.8917C5.01144 5.76065 5.05209 5.63382 5.11618 5.51854C5.18027 5.40326 5.26653 5.3018 5.37 5.22C5.47291 5.13749 5.59112 5.07616 5.71783 5.03953C5.84454 5.00289 5.97724 4.99169 6.1083 5.00656C6.23936 5.02144 6.36618 5.06209 6.48146 5.12618C6.59674 5.19027 6.6982 5.27653 6.78 5.38L8.18 7.13C8.3963 7.40491 8.67295 7.62637 8.98855 7.77723C9.30415 7.92809 9.65022 8.00432 10 8C10.3481 8.00278 10.6922 7.92582 11.006 7.77501C11.3197 7.62421 11.5947 7.40357 11.81 7.13L13.21 5.38C13.2918 5.27653 13.3933 5.19027 13.5085 5.12618C13.6238 5.06209 13.7506 5.02144 13.8817 5.00656C14.0128 4.99169 14.1455 5.00289 14.2722 5.03953C14.3989 5.07616 14.5171 5.13749 14.62 5.22C14.7235 5.3018 14.8097 5.40326 14.8738 5.51854C14.9379 5.63382 14.9786 5.76065 14.9934 5.8917C15.0083 6.02276 14.9971 6.15546 14.9605 6.28217C14.9238 6.40888 14.8625 6.52709 14.78 6.63Z" fill="white"/>
</svg>
