<svg width="20" height="18" viewBox="0 0 20 18" fill="none" xmlns="http://www.w3.org/2000/svg">
<path d="M19.9767 8.78085C20.0078 8.92249 20.0078 9.06922 19.9767 9.21085C18.8293 14.3909 14.7389 18.0009 9.99998 18.0009C8.87038 18.0012 7.75058 17.791 6.69769 17.3809C6.54311 17.3217 6.40563 17.2249 6.29765 17.0992C6.18968 16.9735 6.11458 16.8229 6.07914 16.6609C6.04356 16.4972 6.04958 16.3271 6.09665 16.1664C6.14372 16.0056 6.23032 15.8593 6.34851 15.7409L9.61089 12.4709H9.99998C10.9209 12.4709 11.8046 12.1063 12.4586 11.4564C13.1126 10.8065 13.4839 9.9239 13.4918 9.00085C13.4918 8.87085 13.4918 8.74085 13.4918 8.61085L16.9837 5.05085C17.0914 4.94269 17.2224 4.86071 17.3667 4.81122C17.5109 4.76172 17.6646 4.74603 17.8158 4.76534C17.9671 4.78465 18.1119 4.83846 18.2392 4.92262C18.3664 5.00679 18.4728 5.11907 18.55 5.25085C19.2079 6.34495 19.6894 7.53628 19.9767 8.78085Z" fill="#303037"/>
<path d="M18.6897 0.290793C18.5028 0.104542 18.2499 0 17.9864 0C17.7228 0 17.4699 0.104542 17.283 0.290793L15.6568 1.92079C14.0321 0.67671 12.0446 0.00212044 10 0.000792742C5.27107 0.000792742 1.18063 3.61079 0.0233314 8.79079C-0.00777714 8.93243 -0.00777714 9.07916 0.0233314 9.22079C0.471242 11.275 1.44419 13.1772 2.84673 14.7408L1.3203 16.2908C1.22679 16.3838 1.15257 16.4944 1.10192 16.6162C1.05127 16.7381 1.02519 16.8688 1.02519 17.0008C1.02519 17.1328 1.05127 17.2635 1.10192 17.3854C1.15257 17.5072 1.22679 17.6178 1.3203 17.7108C1.50613 17.8955 1.75694 17.9997 2.01867 18.0008C2.14997 18.0016 2.28013 17.9763 2.40168 17.9266C2.52323 17.8768 2.63379 17.8035 2.72701 17.7108L18.6897 1.71079C18.7832 1.61783 18.8574 1.50723 18.9081 1.38537C18.9587 1.26351 18.9848 1.1328 18.9848 1.00079C18.9848 0.868781 18.9587 0.738075 18.9081 0.616216C18.8574 0.494357 18.7832 0.383756 18.6897 0.290793ZM6.9272 10.6708C6.57315 10.0067 6.44154 9.24611 6.5518 8.5013C6.66206 7.7565 7.00835 7.06698 7.53953 6.53456C8.07071 6.00214 8.75863 5.65504 9.50169 5.54452C10.2448 5.434 11.0036 5.56592 11.6661 5.92079L6.9272 10.6708Z" fill="#303037"/>
</svg>
