<svg width="20" height="20" viewBox="0 0 20 20" fill="none" xmlns="http://www.w3.org/2000/svg">
<path d="M20 10.5V14C20 15.5913 19.3679 17.1174 18.2426 18.2426C17.1174 19.3679 15.5913 20 14 20H6C4.4087 20 2.88258 19.3679 1.75736 18.2426C0.632142 17.1174 0 15.5913 0 14V6C0 4.4087 0.632142 2.88258 1.75736 1.75736C2.88258 0.632141 4.4087 0 6 0H9.5C10.2293 0 10.9288 0.289731 11.4445 0.805456C11.9603 1.32118 12.25 2.02065 12.25 2.75V4.5C12.2526 5.36114 12.5959 6.18626 13.2048 6.79518C13.8137 7.40411 14.6389 7.74736 15.5 7.75H17.25C17.9793 7.75 18.6788 8.03973 19.1945 8.55546C19.7103 9.07118 20 9.77065 20 10.5Z" fill="#303037"/>
<path d="M13.75 2.75C13.7537 1.90559 13.5028 1.07966 13.03 0.380005C13.835 0.67933 14.5652 1.15022 15.17 1.76L18.24 4.83C18.8453 5.42876 19.3128 6.15221 19.61 6.95C18.9121 6.48136 18.0907 6.23074 17.25 6.23001H15.5C15.0359 6.23001 14.5908 6.04563 14.2626 5.71744C13.9344 5.38925 13.75 4.94413 13.75 4.48V2.75Z" fill="#303037"/>
</svg>
