<svg width="21" height="20" viewBox="0 0 21 20" fill="none" xmlns="http://www.w3.org/2000/svg">
<path d="M10.4 19.75C10.4704 19.8288 10.5567 19.8918 10.6532 19.9349C10.7498 19.9779 10.8543 20.0001 10.96 20C8.43277 20.0071 5.99661 19.0571 4.14139 17.341C2.28617 15.625 1.14949 13.2701 0.959961 10.75H6.61996C6.84126 14.0875 8.17174 17.2554 10.4 19.75Z" fill="#303037"/>
<path d="M8.16003 10.75H13.78C13.586 13.4168 12.6084 15.9669 10.97 18.08C9.33063 15.9675 8.35291 13.4171 8.16003 10.75Z" fill="#303037"/>
<path d="M10.97 1.92993C12.6035 4.04203 13.5806 6.58737 13.78 9.24993H8.16003C8.35893 6.58724 9.33611 4.04174 10.97 1.92993Z" fill="#303037"/>
<path d="M15.28 10.75H20.9399C20.7504 13.2701 19.6137 15.625 17.7585 17.341C15.9033 19.0571 13.4671 20.0071 10.9399 20C11.0456 20.0001 11.1502 19.9779 11.2467 19.9349C11.3432 19.8918 11.4295 19.8288 11.5 19.75C13.7282 17.2554 15.0587 14.0875 15.28 10.75Z" fill="#303037"/>
<path d="M11.53 0.25004C11.4595 0.171264 11.3732 0.108269 11.2767 0.0651852C11.1802 0.0221012 11.0757 -9.87411e-05 10.97 3.97008e-05C13.4972 -0.00707733 15.9333 0.942928 17.7885 2.65901C19.6438 4.37508 20.7804 6.72995 20.97 9.25004H15.31C15.0887 5.9125 13.7582 2.74467 11.53 0.25004Z" fill="#303037"/>
<path d="M6.65999 9.25004H1C1.18953 6.72995 2.32619 4.37508 4.18141 2.65901C6.03663 0.942928 8.47281 -0.00707733 11 3.97008e-05C10.8943 -9.87411e-05 10.7898 0.0221012 10.6933 0.0651852C10.5968 0.108269 10.5104 0.171264 10.44 0.25004C8.21177 2.74467 6.88128 5.9125 6.65999 9.25004Z" fill="#303037"/>
</svg>
