<svg width="20" height="19" viewBox="0 0 20 19" fill="none" xmlns="http://www.w3.org/2000/svg">
<path d="M10.56 16.92C10.1948 17.0301 9.80521 17.0301 9.44 16.92C6.83 16 1 12.32 1 6C1 4.95059 1.33019 3.92778 1.94379 3.07645C2.55739 2.22512 3.4233 1.58844 4.41886 1.25658C5.41442 0.92473 6.48916 0.914531 7.49084 1.22743C8.49252 1.54033 9.37035 2.16047 10 3C10.6296 2.16047 11.5075 1.54033 12.5092 1.22743C13.5108 0.914531 14.5856 0.92473 15.5811 1.25658C16.5767 1.58844 17.4426 2.22512 18.0562 3.07645C18.6698 3.92778 19 4.95059 19 6C19 12.32 13.17 16 10.56 16.92Z" stroke="#303037" stroke-width="2" stroke-linecap="round" stroke-linejoin="round"/>
</svg>
