<svg width="20" height="20" viewBox="0 0 20 20" fill="none" xmlns="http://www.w3.org/2000/svg">
<path d="M17.26 3.67889L12.99 0.886988C12.0964 0.308033 11.0545 0 9.99 0C8.92545 0 7.88361 0.308033 6.99 0.886988L2.72 3.67889C1.88811 4.22234 1.2041 4.964 0.729359 5.83729C0.254614 6.71058 0.00399598 7.68816 0 8.68229V14.9966C0 16.3236 0.526784 17.5962 1.46447 18.5345C2.40215 19.4729 3.67392 20 5 20H15C16.3261 20 17.5979 19.4729 18.5355 18.5345C19.4732 17.5962 20 16.3236 20 14.9966V8.70231C19.9972 7.70295 19.7451 6.7201 19.2666 5.8429C18.7881 4.96569 18.0984 4.22187 17.26 3.67889ZM12.94 14.9966H6.94C6.67478 14.9966 6.42043 14.8912 6.23289 14.7035C6.04535 14.5158 5.94 14.2613 5.94 13.9959C5.94 13.7305 6.04535 13.476 6.23289 13.2883C6.42043 13.1007 6.67478 12.9952 6.94 12.9952H12.94C13.2052 12.9952 13.4596 13.1007 13.6471 13.2883C13.8346 13.476 13.94 13.7305 13.94 13.9959C13.94 14.2613 13.8346 14.5158 13.6471 14.7035C13.4596 14.8912 13.2052 14.9966 12.94 14.9966Z" fill="#303037"/>
</svg>
