<svg width="18" height="22" viewBox="0 0 18 22" fill="none" xmlns="http://www.w3.org/2000/svg">
<path d="M10 0H8C7.44772 0 7 0.447715 7 1V3C7 3.55228 7.44772 4 8 4H10C10.5523 4 11 3.55228 11 3V1C11 0.447715 10.5523 0 10 0Z" fill="white"/>
<path d="M14 2H13C12.8674 2 12.7402 2.05268 12.6464 2.14645C12.5527 2.24021 12.5 2.36739 12.5 2.5V3C12.5 3.66304 12.2366 4.29893 11.7678 4.76777C11.2989 5.23661 10.663 5.5 10 5.5H8C7.33696 5.5 6.70107 5.23661 6.23223 4.76777C5.76339 4.29893 5.5 3.66304 5.5 3V2.5C5.5 2.36739 5.44732 2.24021 5.35355 2.14645C5.25979 2.05268 5.13261 2 5 2H4C2.93913 2 1.92172 2.42143 1.17157 3.17157C0.421427 3.92172 0 4.93913 0 6V18C0 19.0609 0.421427 20.0783 1.17157 20.8284C1.92172 21.5786 2.93913 22 4 22H14C15.0609 22 16.0783 21.5786 16.8284 20.8284C17.5786 20.0783 18 19.0609 18 18V6C18 4.93913 17.5786 3.92172 16.8284 3.17157C16.0783 2.42143 15.0609 2 14 2ZM9.1 8C9.51774 7.99802 9.92666 8.12009 10.275 8.35073C10.6233 8.58137 10.8953 8.91021 11.0565 9.29558C11.2177 9.68096 11.261 10.1055 11.1807 10.5155C11.1004 10.9254 10.9002 11.3023 10.6055 11.5984C10.3108 11.8945 9.9349 12.0965 9.52533 12.1787C9.11576 12.2609 8.691 12.2197 8.30486 12.0603C7.91873 11.9009 7.5886 11.6305 7.35631 11.2833C7.12401 10.9361 7 10.5277 7 10.11C6.99999 9.55212 7.22092 9.01694 7.61446 8.62153C8.00801 8.22611 8.54213 8.00264 9.1 8ZM9.1 18C7 18 5.35 16.88 5.35 15.5C5.35 14.12 7 13 9.1 13C11.2 13 12.85 14.12 12.85 15.5C12.85 16.88 11.17 18 9.1 18Z" fill="white"/>
</svg>
