<svg width="20" height="20" viewBox="0 0 20 20" fill="none" xmlns="http://www.w3.org/2000/svg">
<path d="M14 0H6C4.4087 0 2.88258 0.632141 1.75736 1.75736C0.632141 2.88258 0 4.4087 0 6V14C0 15.5913 0.632141 17.1174 1.75736 18.2426C2.88258 19.3679 4.4087 20 6 20H14C15.5913 20 17.1174 19.3679 18.2426 18.2426C19.3679 17.1174 20 15.5913 20 14V6C20 4.4087 19.3679 2.88258 18.2426 1.75736C17.1174 0.632141 15.5913 0 14 0ZM18 14C17.9987 14.2587 17.9719 14.5166 17.92 14.77L14.4 12.54C13.8372 12.1701 13.1785 11.973 12.505 11.973C11.8315 11.973 11.1728 12.1701 10.61 12.54L10.25 12.78C10.0553 12.9151 9.82158 12.9824 9.58485 12.9716C9.34812 12.9607 9.12153 12.8723 8.94 12.72L6.53 10.72C5.96089 10.2488 5.24935 9.9835 4.51065 9.96717C3.77196 9.95083 3.04938 10.1844 2.46 10.63L2 11V6C2 4.93913 2.42143 3.92172 3.17157 3.17157C3.92172 2.42143 4.93913 2 6 2H14C15.0609 2 16.0783 2.42143 16.8284 3.17157C17.5786 3.92172 18 4.93913 18 6V14Z" fill="#303037"/>
<path d="M12.5 10C13.8807 10 15 8.88071 15 7.5C15 6.11929 13.8807 5 12.5 5C11.1193 5 10 6.11929 10 7.5C10 8.88071 11.1193 10 12.5 10Z" fill="#303037"/>
</svg>
