<svg width="18" height="18" viewBox="0 0 18 18" fill="none" xmlns="http://www.w3.org/2000/svg">
<path d="M11.081 14.0193L9.51522 15.5652C8.57104 16.4849 7.30164 17 5.97954 17C4.65743 17 3.38803 16.4849 2.44386 15.5652C1.51838 14.627 1 13.3655 1 12.0517C1 10.7379 1.51838 9.47648 2.44386 8.53823L3.94905 6.93207" stroke="#303037" stroke-width="2" stroke-linecap="round" stroke-linejoin="round"/>
<path d="M5.94995 11.95L11.95 5.95001" stroke="#303037" stroke-width="2" stroke-linecap="round" stroke-linejoin="round"/>
<path d="M6.91898 3.98073L8.48478 2.43479C9.42895 1.51513 10.6984 1 12.0205 1C13.3426 1 14.612 1.51513 15.5561 2.43479C16.4816 3.37304 17 4.63447 17 5.94828C17 7.26208 16.4816 8.52352 15.5561 9.46176L14.0509 11.0679" stroke="#303037" stroke-width="2" stroke-linecap="round" stroke-linejoin="round"/>
</svg>
