<svg width="32" height="36" viewBox="0 0 32 36" fill="none" xmlns="http://www.w3.org/2000/svg">
<path d="M31.7281 24.8913C31.7971 24.7933 31.851 24.6854 31.888 24.5714C31.9218 24.494 31.9486 24.4137 31.968 24.3315C31.9866 24.2204 31.9973 24.1081 32 23.9955V7.99851C32 6.94813 31.7931 5.90803 31.3912 4.93761C30.9892 3.96719 30.4 3.08544 29.6573 2.34271C28.9146 1.59998 28.0328 1.01081 27.0624 0.60885C26.092 0.206887 25.0519 0 24.0015 0H8.00448C5.88315 0 3.8487 0.842697 2.34869 2.34271C0.848675 3.84272 0.00597737 5.87717 0.00597737 7.99851V28.4747C-0.00199246 28.5812 -0.00199246 28.6881 0.00597737 28.7946C0.00597737 30.4917 0.680135 32.1192 1.88014 33.3193C3.08015 34.5193 4.70771 35.1934 6.40478 35.1934H30.4003C30.7148 35.197 31.0225 35.1019 31.2801 34.9215C31.6308 34.6869 31.8746 34.3233 31.9585 33.9099C32.0424 33.4964 31.9596 33.0666 31.7281 32.7139L31.4561 32.298C30.7747 31.2566 30.4119 30.0391 30.4119 28.7946C30.4119 27.5501 30.7747 26.3327 31.4561 25.2913L31.7281 24.8913ZM11.2039 7.99851H20.8021C21.2264 7.99851 21.6332 8.16704 21.9333 8.46705C22.2333 8.76705 22.4018 9.17394 22.4018 9.59821C22.4018 10.0225 22.2333 10.4294 21.9333 10.7294C21.6332 11.0294 21.2264 11.1979 20.8021 11.1979H11.2039C10.7796 11.1979 10.3727 11.0294 10.0727 10.7294C9.77272 10.4294 9.60418 10.0225 9.60418 9.59821C9.60418 9.17394 9.77272 8.76705 10.0727 8.46705C10.3727 8.16704 10.7796 7.99851 11.2039 7.99851ZM11.2039 14.3973H17.6027C18.027 14.3973 18.4338 14.5658 18.7338 14.8659C19.0339 15.1659 19.2024 15.5727 19.2024 15.997C19.2024 16.4213 19.0339 16.8282 18.7338 17.1282C18.4338 17.4282 18.027 17.5967 17.6027 17.5967H11.2039C10.7796 17.5967 10.3727 17.4282 10.0727 17.1282C9.77272 16.8282 9.60418 16.4213 9.60418 15.997C9.60418 15.5727 9.77272 15.1659 10.0727 14.8659C10.3727 14.5658 10.7796 14.3973 11.2039 14.3973ZM27.7448 31.994H6.40478C5.5753 31.9945 4.77804 31.6729 4.18115 31.0969C3.58426 30.5209 3.23441 29.7356 3.20538 28.9066V28.7946C3.19697 28.6881 3.19697 28.5812 3.20538 28.4747C3.28496 27.6828 3.65686 26.9489 4.24846 26.4165C4.84006 25.884 5.60888 25.5912 6.40478 25.5952H27.7448C27.0193 27.6665 27.0193 29.9228 27.7448 31.994Z" fill="white"/>
</svg>
