<svg width="20" height="18" viewBox="0 0 20 18" fill="none" xmlns="http://www.w3.org/2000/svg">
<path d="M11.19 17.75C10.8143 17.9124 10.4093 17.9961 10 17.9961C9.59071 17.9961 9.18573 17.9124 8.81001 17.75C5.71001 16.41 8.99357e-06 12.15 8.99357e-06 5.58C-0.0013054 4.84854 0.141466 4.12398 0.420171 3.44769C0.698876 2.7714 1.10806 2.15663 1.62435 1.63848C2.14064 1.12033 2.75394 0.708947 3.42922 0.427815C4.1045 0.146684 4.82855 0.00131204 5.56001 2.94125e-09C6.42373 -2.81904e-05 7.27541 0.202629 8.04655 0.591674C8.81769 0.980719 9.48678 1.54529 10 2.24C10.6981 1.30326 11.6741 0.610713 12.7888 0.261018C13.9035 -0.0886777 15.1002 -0.0776885 16.2083 0.29242C17.3164 0.662528 18.2794 1.37288 18.9603 2.32228C19.6411 3.27169 20.0049 4.41173 20 5.58C20 12.15 14.29 16.41 11.19 17.75Z" fill="#303037"/>
</svg>
