<svg width="16" height="22" viewBox="0 0 16 22" fill="none" xmlns="http://www.w3.org/2000/svg">
<path d="M8 0C6.41775 0 4.87103 0.469192 3.55544 1.34824C2.23985 2.22729 1.21447 3.47672 0.608967 4.93853C0.00346625 6.40034 -0.15496 8.00887 0.153721 9.56072C0.462403 11.1126 1.22433 12.538 2.34315 13.6569C3.46197 14.7757 4.88743 15.5376 6.43928 15.8463C7.99113 16.155 9.59966 15.9965 11.0615 15.391C12.5233 14.7855 13.7727 13.7602 14.6518 12.4446C15.5308 11.129 16 9.58225 16 8C16 5.87827 15.1571 3.84344 13.6569 2.34315C12.1566 0.842855 10.1217 0 8 0ZM11.39 8L10.6 8.76C10.5059 8.85429 10.4359 8.96985 10.3958 9.09691C10.3558 9.22397 10.3469 9.35879 10.37 9.49L10.55 10.57C10.5786 10.7226 10.5632 10.8802 10.5057 11.0244C10.4483 11.1687 10.351 11.2936 10.2253 11.3847C10.0996 11.4759 9.95062 11.5294 9.79567 11.5392C9.64071 11.549 9.48617 11.5146 9.35 11.44L8.35 10.93C8.23201 10.871 8.10191 10.8403 7.97 10.8403C7.83809 10.8403 7.708 10.871 7.59 10.93L6.59 11.44C6.45384 11.5146 6.29929 11.549 6.14434 11.5392C5.98939 11.5294 5.84039 11.4759 5.71469 11.3847C5.58899 11.2936 5.49175 11.1687 5.43427 11.0244C5.37679 10.8802 5.36144 10.7226 5.39 10.57L5.57 9.49C5.59306 9.35879 5.5842 9.22397 5.54417 9.09691C5.50414 8.96985 5.43411 8.85429 5.34 8.76L4.61 8C4.50077 7.89168 4.42378 7.75514 4.38764 7.60561C4.3515 7.45608 4.35763 7.29945 4.40534 7.1532C4.45306 7.00695 4.54048 6.87683 4.65784 6.77738C4.77521 6.67793 4.91791 6.61306 5.07 6.59L6.15 6.43C6.28395 6.41268 6.41155 6.36254 6.52146 6.28403C6.63136 6.20553 6.72017 6.10109 6.78 5.98L7.26 4.98C7.32941 4.84337 7.43528 4.72863 7.56589 4.64848C7.69651 4.56832 7.84676 4.5259 8 4.5259C8.15325 4.5259 8.3035 4.56832 8.43411 4.64848C8.56473 4.72863 8.6706 4.84337 8.74 4.98L9.23 5.98C9.28819 6.10034 9.37526 6.20441 9.48344 6.28293C9.59162 6.36145 9.71755 6.41197 9.85 6.43L10.93 6.59C11.0821 6.61306 11.2248 6.67793 11.3422 6.77738C11.4595 6.87683 11.547 7.00695 11.5947 7.1532C11.6424 7.29945 11.6485 7.45608 11.6124 7.60561C11.5762 7.75514 11.4992 7.89168 11.39 8Z" fill="#303037"/>
<path d="M13.4599 15.77V20.2C13.4623 20.5072 13.3856 20.8098 13.2371 21.0788C13.0887 21.3477 12.8736 21.5739 12.6124 21.7357C12.3512 21.8974 12.0528 21.9892 11.7459 22.0022C11.439 22.0152 11.1339 21.949 10.86 21.81L8.99995 20.87C8.69078 20.7104 8.34789 20.6271 7.99995 20.6271C7.65201 20.6271 7.30912 20.7104 6.99995 20.87L5.11995 21.81C4.84602 21.949 4.54092 22.0152 4.234 22.0022C3.92709 21.9892 3.62869 21.8974 3.36752 21.7357C3.10635 21.5739 2.89119 21.3477 2.74275 21.0788C2.59431 20.8098 2.51759 20.5072 2.51995 20.2V15.77C4.11802 16.8959 6.02509 17.5003 7.97995 17.5003C9.93481 17.5003 11.8419 16.8959 13.44 15.77H13.4599Z" fill="#303037"/>
</svg>
