<svg width="20" height="16" viewBox="0 0 20 16" fill="none" xmlns="http://www.w3.org/2000/svg">
<path d="M14.92 0.594166C14.5847 0.328382 14.1924 0.144655 13.7741 0.0575498C13.3557 -0.0295556 12.9229 -0.0176433 12.51 0.0923477L3.12 2.50108C2.23463 2.70148 1.4435 3.19811 0.876526 3.9094C0.309553 4.6207 0.000453709 5.50436 0 6.41526V7.59956C0.000661078 8.48905 0.295648 9.35314 0.838638 10.0561C1.38163 10.7591 2.14187 11.2613 3 11.4836V12.4873C3 13.4189 3.36875 14.3124 4.02513 14.9711C4.68151 15.6299 5.57174 16 6.5 16C7.29957 15.9998 8.07497 15.7248 8.69719 15.2209C9.31941 14.7169 9.75095 14.0143 9.92 13.23L12.51 13.8924C12.7386 13.952 12.9738 13.9823 13.21 13.9827C13.8292 13.9784 14.4299 13.7704 14.92 13.3905C15.2522 13.1329 15.5219 12.8031 15.709 12.426C15.896 12.0488 15.9955 11.634 16 11.2126V2.81221C16.0023 2.38399 15.9061 1.96101 15.7188 1.57627C15.5314 1.19153 15.2581 0.855423 14.92 0.594166ZM6.5 14.0329C6.10218 14.0329 5.72065 13.8743 5.43935 13.5919C5.15804 13.3096 5 12.9267 5 12.5274V12.0055L8 12.7683C7.9425 13.1245 7.75941 13.4482 7.48409 13.6803C7.20876 13.9124 6.85954 14.0375 6.5 14.0329Z" fill="#303037"/>
<path d="M18 10.6707C17.7569 10.6703 17.5223 10.5811 17.34 10.4198C17.2401 10.3326 17.1585 10.2264 17.0999 10.1073C17.0412 9.9882 17.0067 9.85862 16.9983 9.72605C16.99 9.59348 17.0079 9.46057 17.0511 9.33501C17.0943 9.20945 17.1619 9.09374 17.25 8.9946C17.7369 8.44052 18.0038 7.72611 18 6.98733C18.0038 6.24854 17.7369 5.53413 17.25 4.98005C17.0752 4.78031 16.9865 4.51912 17.0034 4.25381C17.0202 3.98849 17.1413 3.74074 17.34 3.56492C17.5377 3.38826 17.7972 3.29751 18.0615 3.31256C18.3258 3.32761 18.5734 3.44724 18.75 3.64521C19.5653 4.57299 20.0105 5.77035 20 7.0074C20.0007 8.23064 19.5562 9.41201 18.75 10.3294C18.6563 10.4365 18.5409 10.5223 18.4116 10.5811C18.2823 10.64 18.142 10.6705 18 10.6707Z" fill="#303037"/>
</svg>
