<svg width="20" height="16" viewBox="0 0 20 16" fill="none" xmlns="http://www.w3.org/2000/svg">
<path d="M3.35 3.46732L12.76 1.05467C13.0259 0.987559 13.3036 0.982161 13.5719 1.03889C13.8402 1.09561 14.0921 1.21296 14.3082 1.38198C14.5243 1.55099 14.6989 1.7672 14.8188 2.0141C14.9387 2.261 15.0007 2.53206 15 2.80659V11.1758C15.0007 11.4503 14.9387 11.7214 14.8188 11.9683C14.6989 12.2152 14.5243 12.4314 14.3082 12.6004C14.0921 12.7694 13.8402 12.8868 13.5719 12.9435C13.3036 13.0002 13.0259 12.9948 12.76 12.9277L3.35 10.5151C2.68329 10.3669 2.08702 9.99551 1.65973 9.46217C1.23244 8.92884 0.999713 8.26552 1 7.58184V6.40054C0.999713 5.71686 1.23244 5.05354 1.65973 4.52021C2.08702 3.98687 2.68329 3.61545 3.35 3.46732Z" stroke="#303037" stroke-width="2" stroke-linecap="round" stroke-linejoin="round"/>
<path d="M4 10.9956V12.4973C4 13.161 4.26339 13.7976 4.73223 14.267C5.20107 14.7363 5.83696 15 6.5 15C7.16304 15 7.79893 14.7363 8.26777 14.267C8.73661 13.7976 9 13.161 9 12.4973V11.9967" stroke="#303037" stroke-width="2" stroke-linecap="round" stroke-linejoin="round"/>
<path d="M18 4.33826C18.6467 5.07031 19.0038 6.01387 19.0038 6.99117C19.0038 7.96847 18.6467 8.91203 18 9.64409" stroke="#303037" stroke-width="2" stroke-linecap="round" stroke-linejoin="round"/>
</svg>
