<svg width="14" height="20" viewBox="0 0 14 20" fill="none" xmlns="http://www.w3.org/2000/svg">
<path d="M10 0H4C2.93913 0 1.92172 0.421424 1.17157 1.17157C0.421424 1.92172 0 2.93913 0 4V16C0 17.0609 0.421424 18.0783 1.17157 18.8284C1.92172 19.5786 2.93913 20 4 20H10C11.0609 20 12.0783 19.5786 12.8284 18.8284C13.5786 18.0783 14 17.0609 14 16V4C14 2.93913 13.5786 1.92172 12.8284 1.17157C12.0783 0.421424 11.0609 0 10 0ZM7 16C6.73478 16 6.48043 15.8946 6.29289 15.7071C6.10536 15.5196 6 15.2652 6 15C6 14.7348 6.10536 14.4804 6.29289 14.2929C6.48043 14.1054 6.73478 14 7 14C7.26522 14 7.51957 14.1054 7.70711 14.2929C7.89464 14.4804 8 14.7348 8 15C8 15.2652 7.89464 15.5196 7.70711 15.7071C7.51957 15.8946 7.26522 16 7 16Z" fill="#303037"/>
</svg>
