<svg width="20" height="16" viewBox="0 0 20 16" fill="none" xmlns="http://www.w3.org/2000/svg">
<path d="M14.2366 9.34038C14.3129 9.31094 14.3952 9.3006 14.4764 9.31024C14.5576 9.31989 14.6352 9.34923 14.7024 9.39572C14.7697 9.4422 14.8246 9.50443 14.8623 9.57697C14.9 9.64951 14.9194 9.73017 14.9188 9.81192V11.4072C14.9255 11.9275 14.7675 12.4367 14.4674 12.8619C14.1642 13.2861 13.7363 13.6052 13.2434 13.7749L12.2401 14.1261C11.4888 14.3897 10.6986 14.5254 9.90241 14.5274C9.14145 14.5257 8.38582 14.4003 7.66508 14.1562L6.66179 13.815C6.16401 13.6471 5.73249 13.3253 5.42953 12.8961C5.12656 12.4669 4.96784 11.9525 4.97627 11.4272V9.78183C4.97631 9.70129 4.99573 9.62195 5.0329 9.5505C5.07007 9.47906 5.1239 9.41762 5.18983 9.37137C5.25576 9.32512 5.33186 9.29542 5.41169 9.28479C5.49152 9.27415 5.57274 9.2829 5.64848 9.31028L7.31393 9.94235C8.17465 10.2607 9.08503 10.4238 10.0027 10.4239C10.9206 10.4255 11.8313 10.2624 12.6915 9.94235L14.2366 9.34038Z" fill="#303037"/>
<path d="M19.9955 4.46455C20.0003 4.78747 19.9069 5.10423 19.7278 5.37295C19.5486 5.64166 19.2921 5.84968 18.9922 5.96948L12.0896 8.52786C10.6954 9.04947 9.15964 9.04947 7.76544 8.52786L3.93288 7.0731V12.24L4.61512 13.6145C4.71415 13.8128 4.76061 14.0331 4.75007 14.2545C4.73953 14.4758 4.67234 14.6907 4.55492 14.8787C4.44119 15.0696 4.2795 15.2274 4.0859 15.3366C3.8923 15.4457 3.67353 15.5023 3.45131 15.5007H2.44802C2.22466 15.5011 2.00496 15.444 1.80996 15.3351C1.61496 15.2262 1.4512 15.069 1.33437 14.8787C1.22628 14.6855 1.16953 14.4679 1.16953 14.2466C1.16953 14.0253 1.22628 13.8077 1.33437 13.6145L2.00657 12.2601V6.32063L1.06348 5.96948C0.75262 5.85867 0.48541 5.65122 0.300985 5.37754C0.110892 5.11052 0.00597409 4.79227 0 4.46455C0.00762937 4.13401 0.1123 3.81302 0.300985 3.54153C0.485948 3.27059 0.753343 3.06653 1.06348 2.95962L7.88584 0.391206C9.28003 -0.130402 10.8158 -0.130402 12.21 0.391206L19.0323 2.95962C19.3393 3.07247 19.605 3.27527 19.7948 3.54153C19.9494 3.82339 20.0191 4.14396 19.9955 4.46455Z" fill="#303037"/>
</svg>
