<svg width="20" height="20" viewBox="0 0 20 20" fill="none" xmlns="http://www.w3.org/2000/svg">
<path d="M20 4.97432C20.0028 5.42174 19.9157 5.86516 19.7439 6.27817C19.5721 6.69119 19.3191 7.06536 19 7.37842L18.44 7.93938C18.3495 8.03897 18.2398 8.11924 18.1175 8.17538C17.9953 8.23153 17.863 8.26239 17.7285 8.26613C17.5941 8.26987 17.4603 8.24641 17.3351 8.19715C17.2099 8.14789 17.096 8.07385 17 7.97945L12 2.97089C11.8138 2.78321 11.7092 2.52933 11.7092 2.26469C11.7092 2.00005 11.8138 1.74616 12 1.55848L12.56 0.997523C12.8749 0.68132 13.249 0.430449 13.6608 0.259279C14.0727 0.0881078 14.5141 0 14.96 0C15.4059 0 15.8474 0.0881078 16.2592 0.259279C16.6711 0.430449 17.0451 0.68132 17.36 0.997523L19 2.58023C19.3179 2.89211 19.5702 3.26466 19.742 3.67586C19.9137 4.08706 20.0015 4.52857 20 4.97432Z" fill="#303037"/>
<path d="M15.93 8.98118C16.1163 9.16886 16.2208 9.42275 16.2208 9.68739C16.2208 9.95202 16.1163 10.2059 15.93 10.3936L7.84002 18.4974C7.38134 18.971 6.83276 19.3479 6.22654 19.6059C5.62032 19.8639 4.9687 19.9979 4.31002 20H2.00002C1.46959 20 0.960877 19.7889 0.585805 19.4132C0.210732 19.0375 1.96065e-05 18.5279 1.96065e-05 17.9966V15.6526C-0.00183012 14.9949 0.127219 14.3434 0.37962 13.7363C0.632021 13.1292 1.00271 12.5785 1.47002 12.1165L9.52002 3.97263C9.70738 3.78606 9.96083 3.68134 10.225 3.68134C10.4892 3.68134 10.7427 3.78606 10.93 3.97263L15.93 8.98118Z" fill="#303037"/>
</svg>
