<svg width="20" height="20" viewBox="0 0 20 20" fill="none" xmlns="http://www.w3.org/2000/svg">
<path d="M18.3043 6.69404L7.16797 17.8304C6.79634 18.2016 6.35522 18.496 5.8698 18.6966C5.38438 18.8973 4.86417 19.0004 4.3389 19H1.99967C1.73454 19 1.48027 18.8947 1.2928 18.7072C1.10532 18.5197 1 18.2655 1 18.0003V15.6611C0.999588 15.1358 1.10267 14.6156 1.30336 14.1302C1.50404 13.6448 1.7984 13.2037 2.16962 12.832L13.306 1.69569C13.7553 1.25005 14.3625 1 14.9954 1C15.6283 1 16.2355 1.25005 16.6848 1.69569L18.3043 3.31516C18.75 3.76451 19 4.37174 19 5.0046C19 5.63746 18.75 6.24469 18.3043 6.69404Z" stroke="white" stroke-width="2" stroke-linecap="round" stroke-linejoin="round"/>
<path d="M11.5 3.50586L16.5 8.50586" stroke="white" stroke-width="2" stroke-linecap="round" stroke-linejoin="round"/>
</svg>
