<svg width="20" height="20" viewBox="0 0 20 20" fill="none" xmlns="http://www.w3.org/2000/svg">
<path d="M19.71 18.3L16 14.61C17.2904 13.0248 17.9966 11.0441 18 9C18 6.61305 17.0518 4.32387 15.364 2.63604C13.6761 0.948212 11.3869 0 9 0C6.61305 0 4.32387 0.948212 2.63604 2.63604C0.948212 4.32387 0 6.61305 0 9C0 11.3869 0.948212 13.6761 2.63604 15.364C4.32387 17.0518 6.61305 18 9 18C11.0441 17.9966 13.0248 17.2904 14.61 16L18.3 19.71C18.4863 19.8947 18.7377 19.9989 19 20C19.1316 20.0008 19.2621 19.9755 19.3839 19.9258C19.5057 19.876 19.6166 19.8027 19.71 19.71C19.8963 19.5226 20.0008 19.2692 20.0008 19.005C20.0008 18.7408 19.8963 18.4874 19.71 18.3ZM9 16C7.14348 16 5.36301 15.2625 4.05025 13.9497C2.7375 12.637 2 10.8565 2 9C2 7.14349 2.7375 5.36301 4.05025 4.05025C5.36301 2.7375 7.14348 2 9 2C10.8565 2 12.637 2.7375 13.9497 4.05025C15.2625 5.36301 16 7.14349 16 9C16 10.8565 15.2625 12.637 13.9497 13.9497C12.637 15.2625 10.8565 16 9 16Z" fill="#303037"/>
</svg>
