<svg width="21" height="20" viewBox="0 0 21 20" fill="none" xmlns="http://www.w3.org/2000/svg">
<path d="M12.1477 2.20733L13.3397 4.72031C13.4925 5.02597 13.7167 5.29028 13.9933 5.49085C14.27 5.69143 14.5909 5.82235 14.9289 5.87251L17.6902 6.26982C18.0906 6.31972 18.4683 6.48306 18.7789 6.74058C19.0895 6.9981 19.32 7.33906 19.4432 7.72326C19.5664 8.10746 19.5772 8.51888 19.4743 8.909C19.3713 9.29911 19.159 9.65167 18.8623 9.92508L16.8757 11.9116C16.6307 12.1503 16.4474 12.445 16.3419 12.7704C16.2363 13.0957 16.2116 13.4419 16.2698 13.779L16.7367 16.5304C16.8048 16.9185 16.7626 17.3181 16.6149 17.6834C16.4672 18.0488 16.2199 18.3654 15.9012 18.5972C15.5824 18.8291 15.205 18.9668 14.8119 18.9947C14.4188 19.0226 14.0257 18.9397 13.6774 18.7553L11.1545 17.3647C10.8479 17.2046 10.5071 17.1209 10.1612 17.1209C9.81529 17.1209 9.47452 17.2046 9.16792 17.3647L6.75426 18.6659C6.40594 18.8503 6.01287 18.9332 5.61974 18.9053C5.22662 18.8774 4.84923 18.7397 4.53049 18.5079C4.21176 18.276 3.96448 17.9594 3.81677 17.594C3.66906 17.2287 3.62686 16.8292 3.69497 16.441L4.20154 13.6896C4.25981 13.3525 4.23509 13.0063 4.12952 12.681C4.02395 12.3556 3.84071 12.0609 3.59564 11.8222L1.60909 9.83568C1.33927 9.56201 1.14909 9.22001 1.05898 8.8464C0.968868 8.4728 0.982222 8.0817 1.09761 7.71511C1.213 7.34853 1.42606 7.02029 1.71392 6.76566C2.00178 6.51103 2.35356 6.33961 2.73149 6.26982L5.4928 5.87251C5.83081 5.82235 6.15174 5.69143 6.42839 5.49085C6.70504 5.29028 6.92926 5.02597 7.08204 4.72031L8.3137 2.20733C8.48688 1.8458 8.75876 1.54061 9.09796 1.32698C9.43716 1.11335 9.82986 1 10.2307 1C10.6316 1 11.0243 1.11335 11.3635 1.32698C11.7027 1.54061 11.9746 1.8458 12.1477 2.20733Z" stroke="#303037" stroke-width="2" stroke-linecap="round" stroke-linejoin="round"/>
</svg>
