<svg width="21" height="20" viewBox="0 0 21 20" fill="none" xmlns="http://www.w3.org/2000/svg">
<path d="M12.4873 1.31907L13.8758 4.12937C14.0451 4.47233 14.2955 4.76889 14.6051 4.99339C14.9148 5.2179 15.2745 5.3636 15.6531 5.41789L18.7411 5.8622C19.1888 5.918 19.6113 6.10067 19.9586 6.38866C20.306 6.67664 20.5637 7.05795 20.7015 7.4876C20.8392 7.91726 20.8513 8.37735 20.7362 8.81362C20.6211 9.24989 20.3836 9.64415 20.0518 9.94992L17.8302 12.1715C17.5562 12.4384 17.3512 12.768 17.2332 13.1318C17.1151 13.4957 17.0875 13.8828 17.1526 14.2598L17.6858 17.3367C17.7403 17.7665 17.6757 18.2031 17.499 18.5987C17.3223 18.9943 17.0404 19.3338 16.684 19.5802C16.3276 19.8266 15.9104 19.9704 15.4779 19.9959C15.0454 20.0214 14.6142 19.9277 14.2313 19.7249L11.4654 18.2697C11.1231 18.0888 10.7418 17.9942 10.3546 17.9942C9.96743 17.9942 9.58612 18.0888 9.24382 18.2697L6.47795 19.7249C6.08842 19.9311 5.64884 20.0238 5.20921 19.9926C4.76958 19.9614 4.34753 19.8074 3.99109 19.5481C3.63464 19.2889 3.3581 18.9348 3.19292 18.5262C3.02774 18.1176 2.98055 17.6708 3.05671 17.2367L3.57878 14.1598C3.64815 13.7856 3.62578 13.4001 3.51357 13.0364C3.40137 12.6727 3.20268 12.3416 2.93453 12.0715L0.712943 9.84994C0.398033 9.54242 0.175152 9.15314 0.0693581 8.72589C-0.0364358 8.29863 -0.0209482 7.85033 0.114081 7.43139C0.24911 7.01246 0.498325 6.63949 0.833709 6.35443C1.16909 6.06937 1.57735 5.88352 2.01257 5.81777L5.11167 5.37346C5.48967 5.31735 5.84857 5.17095 6.15795 4.94664C6.46734 4.72234 6.71808 4.42675 6.88894 4.08494L8.26632 1.27464C8.46803 0.886654 8.7733 0.562158 9.14827 0.337176C9.52324 0.112194 9.95322 -0.00447161 10.3905 0.00013111C10.8277 0.00473383 11.2552 0.130425 11.6253 0.36325C11.9955 0.596076 12.2938 0.926925 12.4873 1.31907Z" fill="#303037"/>
</svg>
