<svg width="18" height="20" viewBox="0 0 18 20" fill="none" xmlns="http://www.w3.org/2000/svg">
<path d="M15 8.00034L14.33 15.3603C14.2399 16.3576 13.779 17.2848 13.0384 17.9588C12.2978 18.6327 11.3313 19.0044 10.33 19.0003H7.63C6.62866 19.0044 5.66221 18.6327 4.92161 17.9588C4.181 17.2848 3.72011 16.3576 3.63 15.3603L3 8.00034" stroke="#303037" stroke-width="2" stroke-linecap="round" stroke-linejoin="round"/>
<path d="M17 5.00034H1" stroke="#303037" stroke-width="2" stroke-linecap="round" stroke-linejoin="round"/>
<path d="M13.5 5.00034H4.5L5 2.89034C5.13368 2.34425 5.44894 1.85978 5.89409 1.51638C6.33924 1.17298 6.88786 0.991019 7.45 1.00034H10.55C11.1121 0.991019 11.6608 1.17298 12.1059 1.51638C12.5511 1.85978 12.8663 2.34425 13 2.89034L13.5 5.00034Z" stroke="#303037" stroke-width="2" stroke-linecap="round" stroke-linejoin="round"/>
</svg>
