<svg width="18" height="20" viewBox="0 0 18 20" fill="none" xmlns="http://www.w3.org/2000/svg">
<path d="M17 5H1" stroke="#303037" stroke-width="2" stroke-linecap="round" stroke-linejoin="round"/>
<path d="M15 8L14.33 15.36C14.2399 16.3573 13.779 17.2845 13.0384 17.9585C12.2978 18.6324 11.3313 19.0041 10.33 19H7.63C6.62866 19.0041 5.66221 18.6324 4.92161 17.9585C4.181 17.2845 3.72011 16.3573 3.63 15.36L3 8" stroke="#303037" stroke-width="2" stroke-linecap="round" stroke-linejoin="round"/>
<path d="M7 10V13" stroke="#303037" stroke-width="2" stroke-linecap="round" stroke-linejoin="round"/>
<path d="M10.99 10V13" stroke="#303037" stroke-width="2" stroke-linecap="round" stroke-linejoin="round"/>
<path d="M13.5 5.00001H4.5L5 2.89001C5.13368 2.34391 5.44894 1.85945 5.89409 1.51604C6.33924 1.17264 6.88786 0.990684 7.45 1.00001H10.55C11.1121 0.990684 11.6608 1.17264 12.1059 1.51604C12.5511 1.85945 12.8663 2.34391 13 2.89001L13.5 5.00001Z" stroke="#303037" stroke-width="2" stroke-linecap="round" stroke-linejoin="round"/>
</svg>
