<svg width="20" height="20" viewBox="0 0 20 20" fill="none" xmlns="http://www.w3.org/2000/svg">
<path d="M7 9C9.48528 9 11.5 6.98528 11.5 4.5C11.5 2.01472 9.48528 0 7 0C4.51472 0 2.5 2.01472 2.5 4.5C2.5 6.98528 4.51472 9 7 9Z" fill="#303037"/>
<path d="M18 5C18 6.06087 17.5786 7.07828 16.8284 7.82843C16.0783 8.57857 15.0609 9 14 9C13.3362 9.00388 12.6823 8.83869 12.1 8.52C12.9083 7.50134 13.3904 6.26244 13.4832 4.96534C13.576 3.66824 13.2751 2.37333 12.62 1.25C13.0613 1.0846 13.5287 0.999918 14 1C15.0609 1 16.0783 1.42143 16.8284 2.17157C17.5786 2.92172 18 3.93913 18 5Z" fill="#303037"/>
<path d="M7 20C10.866 20 14 17.7614 14 15C14 12.2386 10.866 10 7 10C3.13401 10 0 12.2386 0 15C0 17.7614 3.13401 20 7 20Z" fill="#303037"/>
<path d="M20 14.5C20 16.88 17.55 18.82 14.44 18.99C15.4333 17.8973 15.9887 16.4767 16 15C15.9838 14.0199 15.7384 13.0573 15.2835 12.189C14.8285 11.3208 14.1766 10.5711 13.38 10H14C17.31 10 20 12 20 14.5Z" fill="#303037"/>
</svg>
