<svg width="20" height="20" viewBox="0 0 20 20" fill="none" xmlns="http://www.w3.org/2000/svg">
<path d="M7 8C8.933 8 10.5 6.433 10.5 4.5C10.5 2.567 8.933 1 7 1C5.067 1 3.5 2.567 3.5 4.5C3.5 6.433 5.067 8 7 8Z" stroke="#303037" stroke-width="2" stroke-linecap="round" stroke-linejoin="round"/>
<path d="M7 19C10.3137 19 13 17.2091 13 15C13 12.7909 10.3137 11 7 11C3.68629 11 1 12.7909 1 15C1 17.2091 3.68629 19 7 19Z" stroke="#303037" stroke-width="2" stroke-linecap="round" stroke-linejoin="round"/>
<path d="M14 8C14.7956 8 15.5587 7.68393 16.1213 7.12132C16.6839 6.55871 17 5.79565 17 5C17 4.20435 16.6839 3.44129 16.1213 2.87868C15.5587 2.31607 14.7956 2 14 2" stroke="#303037" stroke-width="2" stroke-linecap="round" stroke-linejoin="round"/>
<path d="M16 17.71C17.76 17.17 19 15.94 19 14.5C19 13.06 17.76 11.83 16 11.3" stroke="#303037" stroke-width="2" stroke-miterlimit="10" stroke-linecap="round"/>
</svg>
