<svg width="19" height="18" viewBox="0 0 19 18" fill="none" xmlns="http://www.w3.org/2000/svg">
<path d="M9.50781 15.9973C9.2426 15.9973 8.98824 15.8918 8.80071 15.704C8.61317 15.5162 8.50781 15.2615 8.50781 14.9959C8.50781 14.7303 8.61317 14.4756 8.80071 14.2879C8.98824 14.1001 9.2426 13.9946 9.50781 13.9946C9.77303 13.9946 10.0274 14.1001 10.2149 14.2879C10.4025 14.4756 10.5078 14.7303 10.5078 14.9959C10.5078 15.2615 10.4025 15.5162 10.2149 15.704C10.0274 15.8918 9.77303 15.9973 9.50781 15.9973Z" fill="#303037"/>
<path d="M15.1755 10.3397C15.0433 10.3392 14.9124 10.3123 14.7906 10.2608C14.6688 10.2092 14.5584 10.1339 14.4658 10.0393C13.6539 9.23785 12.6638 8.64073 11.5768 8.29696C11.331 8.21253 11.1278 8.03559 11.01 7.80362C10.8923 7.57165 10.8693 7.30288 10.946 7.05424C11.0227 6.80561 11.193 6.59664 11.4208 6.4716C11.6486 6.34656 11.9161 6.31528 12.1666 6.38439C13.5463 6.81759 14.8036 7.5726 15.8353 8.58735C15.9419 8.68118 16.0274 8.79669 16.086 8.92618C16.1446 9.05567 16.175 9.19618 16.1752 9.33836C16.1752 9.60393 16.0699 9.85863 15.8824 10.0464C15.6949 10.2342 15.4406 10.3397 15.1755 10.3397Z" fill="#303037"/>
<path d="M17.9945 7.50588C17.8623 7.50533 17.7314 7.47849 17.6096 7.42692C17.4878 7.37536 17.3774 7.30009 17.2848 7.20547C16.267 6.17785 15.0551 5.3635 13.7198 4.80991C12.3845 4.25633 10.9526 3.9746 9.50749 3.98114C8.94508 3.97851 8.38339 4.02205 7.82807 4.11131C7.6968 4.13301 7.56254 4.1286 7.43297 4.09832C7.3034 4.06804 7.18105 4.0125 7.0729 3.93486C6.96476 3.85722 6.87294 3.759 6.80269 3.64581C6.73245 3.53263 6.68514 3.40669 6.66348 3.27519C6.64182 3.14369 6.64623 3.00921 6.67645 2.87942C6.70668 2.74962 6.76213 2.62707 6.83964 2.51874C6.99618 2.29997 7.23307 2.15244 7.49819 2.10862C8.16319 2.00946 8.83528 1.96592 9.50749 1.97845C11.2165 1.97114 12.9099 2.30472 14.4888 2.95973C16.0678 3.61474 17.5008 4.57808 18.7043 5.79358C18.8453 5.93363 18.9414 6.11258 18.9805 6.30758C19.0195 6.50259 18.9997 6.70484 18.9236 6.88853C18.8474 7.07222 18.7184 7.22903 18.553 7.33898C18.3875 7.44893 18.1931 7.50703 17.9945 7.50588Z" fill="#303037"/>
<path d="M17.8546 17.7096C17.6684 17.8946 17.4171 17.9989 17.1548 18C17.0233 18.0007 16.8929 17.9755 16.7711 17.9257C16.6493 17.8758 16.5385 17.8024 16.4451 17.7096L11.6168 12.8731C11.0487 12.3254 10.2909 12.0195 9.50249 12.0195C8.71407 12.0195 7.95629 12.3254 7.38822 12.8731C7.29529 12.9669 7.18473 13.0414 7.06291 13.0923C6.9411 13.1431 6.81044 13.1693 6.67847 13.1693C6.54651 13.1693 6.41585 13.1431 6.29403 13.0923C6.17221 13.0414 6.06165 12.9669 5.96872 12.8731C5.78253 12.6855 5.67803 12.4317 5.67803 12.1671C5.67803 11.9026 5.78253 11.6488 5.96872 11.4612C6.73081 10.6841 7.72984 10.1837 8.80773 10.0393L7.14831 8.39708C6.15505 8.74052 5.25266 9.30547 4.50923 10.0493C4.41629 10.1432 4.30573 10.2176 4.18392 10.2685C4.0621 10.3193 3.93144 10.3455 3.79947 10.3455C3.66751 10.3455 3.53685 10.3193 3.41503 10.2685C3.29321 10.2176 3.18265 10.1432 3.08972 10.0493C2.99602 9.95621 2.92165 9.84546 2.8709 9.72344C2.82015 9.60142 2.79402 9.47054 2.79402 9.33835C2.79402 9.20616 2.82015 9.07527 2.8709 8.95325C2.92165 8.83123 2.99602 8.72048 3.08972 8.62739C3.82533 7.89864 4.68091 7.30244 5.61884 6.86502L4.12936 5.37302C3.24346 5.8793 2.42692 6.49864 1.7002 7.21549C1.51401 7.40049 1.26269 7.50478 1.00044 7.50588C0.868184 7.50533 0.737346 7.4785 0.615513 7.42693C0.49368 7.37537 0.383274 7.3001 0.290692 7.20548C0.104505 7.01787 0 6.76407 0 6.49953C0 6.23499 0.104505 5.9812 0.290692 5.79358C1.00647 5.07384 1.80513 4.4419 2.66986 3.91105L0.510615 1.70809C0.324429 1.52048 0.219924 1.26669 0.219924 1.00214C0.219924 0.737604 0.324429 0.483811 0.510615 0.296196C0.603546 0.202342 0.714109 0.127847 0.835926 0.0770104C0.957743 0.0261734 1.0884 0 1.22037 0C1.35233 0 1.48299 0.0261734 1.60481 0.0770104C1.72663 0.127847 1.83719 0.202342 1.93012 0.296196L5.05903 3.48047L8.05799 6.48451L8.28791 6.71482L12.9463 11.3711L13.0762 11.5113L13.1662 11.6114L17.8846 16.3277C18.0578 16.5178 18.1513 16.7674 18.1458 17.0247C18.1402 17.282 18.0359 17.5273 17.8546 17.7096Z" fill="#303037"/>
</svg>
